<svg width="123" height="123" viewBox="0 0 123 123" fill="none" xmlns="http://www.w3.org/2000/svg">
<rect x="25.8818" width="100" height="100" rx="50" transform="rotate(15 25.8818 0)" fill="#FFE8C8" fill-opacity="0.5"/>
<rect x="11" y="11" width="100" height="100" rx="50" fill="#FFE8C8"/>
<path d="M52.5039 86.6998H33.8125C32.8741 86.6998 32.1133 85.939 32.1133 85.0006V64.61C32.1133 63.6716 32.8741 62.9108 33.8125 62.9108H52.5039C53.4423 62.9108 54.2031 63.6716 54.2031 64.61V85.0006C54.2031 85.939 53.4423 86.6998 52.5039 86.6998Z" fill="#FB9333"/>
<path d="M52.5039 62.9108H42.3086V86.6998H52.5039C53.4423 86.6998 54.2031 85.939 54.2031 85.0006V64.61C54.2031 63.6716 53.4423 62.9108 52.5039 62.9108Z" fill="#FB9333"/>
<path d="M84.4675 42.3522L79.9179 40.5397L74.9152 42.3522L73.4726 54.6146C73.4159 55.0965 73.5679 55.5797 73.8903 55.9423C74.2127 56.3049 74.6749 56.5123 75.1601 56.5123H84.2226C84.7078 56.5123 85.1699 56.3049 85.4924 55.9423C85.8149 55.5797 85.9668 55.0965 85.9102 54.6146L84.4675 42.3522Z" fill="#FB9333"/>
<path d="M85.9102 54.6146L84.4676 42.3522L79.918 40.5397L79.6914 40.6218V56.5123H84.2227C84.7078 56.5123 85.1699 56.3049 85.4924 55.9423C85.8149 55.5797 85.9669 55.0964 85.9102 54.6146Z" fill="#FB9333"/>
<path d="M56.4804 54.6146C56.4237 55.0965 56.5758 55.5797 56.8982 55.9423C57.2206 56.3049 57.6827 56.5123 58.1679 56.5123H67.2304C67.7156 56.5123 68.1777 56.3049 68.5002 55.9423C68.8227 55.5797 68.9746 55.0965 68.918 54.6146L67.4753 42.3522L62.8125 39.6334L57.923 42.3522L56.4804 54.6146Z" fill="#FB9333"/>
<path d="M68.918 54.6146L67.4754 42.3522L62.8125 39.6334L62.6992 39.6964V56.5123H67.2305C67.7157 56.5123 68.1777 56.3049 68.5002 55.9423C68.8228 55.5797 68.9747 55.0964 68.918 54.6146Z" fill="#FB9333"/>
<path d="M83.6444 35.3568C83.5438 34.501 82.8184 33.8561 81.9568 33.8561H77.4256C76.564 33.8561 75.8386 34.501 75.738 35.3568L74.915 42.3522H84.4675L83.6444 35.3568Z" fill="#FFAC37"/>
<path d="M83.6446 35.3568C83.544 34.501 82.8186 33.8561 81.957 33.8561H79.6914V42.3522H84.4676L83.6446 35.3568Z" fill="#FFAC37"/>
<path d="M64.9646 33.8561H60.4334C59.5718 33.8561 58.8464 34.501 58.7458 35.3568L57.9229 42.3522H67.4753L66.6523 35.3568C66.5516 34.501 65.8263 33.8561 64.9646 33.8561Z" fill="#FFAC37"/>
<path d="M66.6524 35.3568C66.5518 34.501 65.8265 33.8561 64.9648 33.8561H62.6992V42.3522H67.4754L66.6524 35.3568Z" fill="#FFAC37"/>
<path d="M38.9102 76.5045C37.9717 76.5045 37.2109 75.7437 37.2109 74.8053V71.4069C37.2109 70.4684 37.9717 69.7076 38.9102 69.7076C39.8486 69.7076 40.6094 70.4684 40.6094 71.4069V74.8053C40.6094 75.7437 39.8486 76.5045 38.9102 76.5045Z" fill="#FFF8EE"/>
<path d="M45.707 76.5045C44.7686 76.5045 44.0078 75.7437 44.0078 74.8053V71.4069C44.0078 70.4684 44.7686 69.7076 45.707 69.7076C46.6455 69.7076 47.4062 70.4684 47.4062 71.4069V74.8053C47.4062 75.7437 46.6455 76.5045 45.707 76.5045Z" fill="white"/>
<path d="M76.293 86.6998H88.1875C89.1259 86.6998 89.8867 85.939 89.8867 85.0006V57.8131C89.8867 56.8747 89.1259 56.1139 88.1875 56.1139H54.2031C53.2647 56.1139 52.5039 56.8747 52.5039 57.8131V86.6998H66.0977L70.9688 85.7936L76.293 86.6998Z" fill="#FFAC37"/>
<path d="M88.1875 56.1139H71.1953V85.8321L76.293 86.6998H88.1875C89.1259 86.6998 89.8867 85.939 89.8867 85.0006V57.8131C89.8867 56.8747 89.1259 56.1139 88.1875 56.1139Z" fill="#FFAC37"/>
<path d="M61 79.903C60.0616 79.903 59.3008 79.1422 59.3008 78.2037V74.8053C59.3008 73.8669 60.0616 73.1061 61 73.1061C61.9384 73.1061 62.6992 73.8669 62.6992 74.8053V78.2037C62.6992 79.1422 61.9384 79.903 61 79.903Z" fill="#FFF8EE"/>
<path d="M61 69.7076C60.0616 69.7076 59.3008 68.9468 59.3008 68.0084V64.61C59.3008 63.6716 60.0616 62.9108 61 62.9108C61.9384 62.9108 62.6992 63.6716 62.6992 64.61V68.0084C62.6992 68.9468 61.9384 69.7076 61 69.7076Z" fill="#FFF8EE"/>
<path d="M81.3906 79.903C80.4522 79.903 79.6914 79.1422 79.6914 78.2037V74.8053C79.6914 73.8669 80.4522 73.1061 81.3906 73.1061C82.329 73.1061 83.0898 73.8669 83.0898 74.8053V78.2037C83.0898 79.1422 82.329 79.903 81.3906 79.903Z" fill="white"/>
<path d="M81.3906 69.7076C80.4522 69.7076 79.6914 68.9468 79.6914 68.0084V64.61C79.6914 63.6716 80.4522 62.9108 81.3906 62.9108C82.329 62.9108 83.0898 63.6716 83.0898 64.61V68.0084C83.0898 68.9468 82.329 69.7076 81.3906 69.7076Z" fill="white"/>
<path d="M67.7969 69.7076C66.8585 69.7076 66.0977 68.9468 66.0977 68.0084V64.61C66.0977 63.6716 66.8585 62.9108 67.7969 62.9108C68.7353 62.9108 69.4961 63.6716 69.4961 64.61V68.0084C69.4961 68.9468 68.7353 69.7076 67.7969 69.7076Z" fill="#FFF8EE"/>
<path d="M74.5938 69.7076C73.6553 69.7076 72.8945 68.9468 72.8945 68.0084V64.61C72.8945 63.6716 73.6553 62.9108 74.5938 62.9108C75.5322 62.9108 76.293 63.6716 76.293 64.61V68.0084C76.293 68.9468 75.5322 69.7076 74.5938 69.7076Z" fill="white"/>
<path d="M74.5938 73.1061H67.7969C66.8585 73.1061 66.0977 73.8669 66.0977 74.8053V86.6998H69.4961L71.082 85.567L72.8945 86.6998H76.293V74.8053C76.293 73.8669 75.5322 73.1061 74.5938 73.1061Z" fill="#FFF8EE"/>
<path d="M74.5938 73.1061H71.1953V85.6378L72.8945 86.6998H76.293V74.8053C76.293 73.8669 75.5322 73.1061 74.5938 73.1061Z" fill="white"/>
<path d="M69.4961 76.5045H72.8945V86.6998H69.4961V76.5045Z" fill="#FFAC37"/>
<path d="M71.1953 76.5045H72.8945V86.6998H71.1953V76.5045Z" fill="#FFAC37"/>
</svg>
