<svg width="156" height="54" viewBox="0 0 156 54" fill="none" xmlns="http://www.w3.org/2000/svg">
<path d="M13.2969 21.7109V24.875H4.54297V21.7109H13.2969ZM5.91406 14.9375V32H1.80078V14.9375H5.91406ZM16.0625 14.9375V32H11.9609V14.9375H16.0625ZM30.418 28.8359V32H21.3242V28.8359H30.418ZM22.7891 14.9375V32H18.6758V14.9375H22.7891ZM29.2461 21.7109V24.7695H21.3242V21.7109H29.2461ZM30.4531 14.9375V18.1133H21.3242V14.9375H30.4531ZM39.3359 18.5234L35.1758 32H30.7578L37.0273 14.9375H39.8281L39.3359 18.5234ZM42.7812 32L38.6094 18.5234L38.0703 14.9375H40.9062L47.2109 32H42.7812ZM42.6172 25.6367V28.8125H33.8633V25.6367H42.6172ZM59.7383 28.8359V32H51.1133V28.8359H59.7383ZM52.5781 14.9375V32H48.4648V14.9375H52.5781ZM67.3203 14.9375V32H63.207V14.9375H67.3203ZM72.4531 14.9375V18.1133H58.1914V14.9375H72.4531ZM85.6953 21.7109V24.875H76.9414V21.7109H85.6953ZM78.3125 14.9375V32H74.1992V14.9375H78.3125ZM88.4609 14.9375V32H84.3594V14.9375H88.4609ZM93.8398 14.9375L96.9805 22.3438L100.133 14.9375H104.562L99.0781 25.8711V32H94.8945V25.8711L89.3984 14.9375H93.8398Z" fill="#FB9333"/>
<path d="M112.719 24.5117H108.336L108.312 22.0977H111.992C112.641 22.0977 113.172 22.0156 113.586 21.8516C114 21.6797 114.309 21.4336 114.512 21.1133C114.723 20.7852 114.828 20.3867 114.828 19.918C114.828 19.3867 114.727 18.957 114.523 18.6289C114.328 18.3008 114.02 18.0625 113.598 17.9141C113.184 17.7656 112.648 17.6914 111.992 17.6914H109.555V32H106.039V14.9375H111.992C112.984 14.9375 113.871 15.0312 114.652 15.2188C115.441 15.4062 116.109 15.6914 116.656 16.0742C117.203 16.457 117.621 16.9414 117.91 17.5273C118.199 18.1055 118.344 18.793 118.344 19.5898C118.344 20.293 118.184 20.9414 117.863 21.5352C117.551 22.1289 117.055 22.6133 116.375 22.9883C115.703 23.3633 114.824 23.5703 113.738 23.6094L112.719 24.5117ZM112.566 32H107.375L108.746 29.2578H112.566C113.184 29.2578 113.688 29.1602 114.078 28.9648C114.469 28.7617 114.758 28.4883 114.945 28.1445C115.133 27.8008 115.227 27.4062 115.227 26.9609C115.227 26.4609 115.141 26.0273 114.969 25.6602C114.805 25.293 114.539 25.0117 114.172 24.8164C113.805 24.6133 113.32 24.5117 112.719 24.5117H109.332L109.355 22.0977H113.574L114.383 23.0469C115.422 23.0312 116.258 23.2148 116.891 23.5977C117.531 23.9727 117.996 24.4609 118.285 25.0625C118.582 25.6641 118.73 26.3086 118.73 26.9961C118.73 28.0898 118.492 29.0117 118.016 29.7617C117.539 30.5039 116.84 31.0625 115.918 31.4375C115.004 31.8125 113.887 32 112.566 32ZM125.105 14.9375V32H121.602V14.9375H125.105ZM135.676 14.9375V32H132.172V14.9375H135.676ZM140.926 14.9375V17.6914H127.004V14.9375H140.926ZM154.379 29.2578V32H145.297V29.2578H154.379ZM146.445 14.9375V32H142.93V14.9375H146.445ZM153.195 21.8867V24.5586H145.297V21.8867H153.195ZM154.367 14.9375V17.6914H145.297V14.9375H154.367Z" fill="#585858"/>
</svg>
