<svg width="131" height="19" viewBox="0 0 131 19" fill="none" xmlns="http://www.w3.org/2000/svg">
<path d="M2.83984 0.9375H6.19141L10 12.8086L13.8086 0.9375H17.1602L11.3594 18H8.64062L2.83984 0.9375ZM0.800781 0.9375H4.26953L4.91406 14.0156V18H0.800781V0.9375ZM15.7305 0.9375H19.2109V18H15.0859V14.0156L15.7305 0.9375ZM31.1055 0.9375H35.2188V12.082C35.2188 13.4102 34.9414 14.5352 34.3867 15.457C33.832 16.3711 33.0547 17.0625 32.0547 17.5312C31.0547 18 29.8789 18.2344 28.5273 18.2344C27.1914 18.2344 26.0156 18 25 17.5312C23.9922 17.0625 23.2031 16.3711 22.6328 15.457C22.0703 14.5352 21.7891 13.4102 21.7891 12.082V0.9375H25.9141V12.082C25.9141 12.7852 26.0156 13.3594 26.2188 13.8047C26.4219 14.2422 26.7188 14.5625 27.1094 14.7656C27.5 14.9688 27.9727 15.0703 28.5273 15.0703C29.0898 15.0703 29.5625 14.9688 29.9453 14.7656C30.3281 14.5625 30.6172 14.2422 30.8125 13.8047C31.0078 13.3594 31.1055 12.7852 31.1055 12.082V0.9375ZM39.8477 0.9375H43.1992L47.0078 12.8086L50.8164 0.9375H54.168L48.3672 18H45.6484L39.8477 0.9375ZM37.8086 0.9375H41.2773L41.9219 14.0156V18H37.8086V0.9375ZM52.7383 0.9375H56.2188V18H52.0938V14.0156L52.7383 0.9375ZM67.6445 13.4648C67.6445 13.1992 67.6055 12.9609 67.5273 12.75C67.4492 12.5312 67.3047 12.3281 67.0938 12.1406C66.8828 11.9531 66.5781 11.7656 66.1797 11.5781C65.7891 11.3828 65.2734 11.1797 64.6328 10.9688C63.8828 10.7188 63.1602 10.4375 62.4648 10.125C61.7695 9.80469 61.1484 9.43359 60.6016 9.01172C60.0547 8.58203 59.6211 8.08203 59.3008 7.51172C58.9805 6.93359 58.8203 6.26172 58.8203 5.49609C58.8203 4.76172 58.9844 4.10156 59.3125 3.51562C59.6406 2.92187 60.0977 2.41797 60.6836 2.00391C61.2773 1.58203 61.9727 1.26172 62.7695 1.04297C63.5664 0.816406 64.4375 0.703125 65.3828 0.703125C66.6328 0.703125 67.7344 0.921875 68.6875 1.35938C69.6484 1.78906 70.3984 2.40234 70.9375 3.19922C71.4844 3.98828 71.7578 4.92188 71.7578 6H67.668C67.668 5.57031 67.5781 5.19141 67.3984 4.86328C67.2266 4.53516 66.9648 4.27734 66.6133 4.08984C66.2617 3.90234 65.8203 3.80859 65.2891 3.80859C64.7734 3.80859 64.3398 3.88672 63.9883 4.04297C63.6367 4.19922 63.3711 4.41016 63.1914 4.67578C63.0117 4.93359 62.9219 5.21875 62.9219 5.53125C62.9219 5.78906 62.9922 6.02344 63.1328 6.23438C63.2812 6.4375 63.4883 6.62891 63.7539 6.80859C64.0273 6.98828 64.3555 7.16016 64.7383 7.32422C65.1289 7.48828 65.5664 7.64844 66.0508 7.80469C66.957 8.09375 67.7617 8.41797 68.4648 8.77734C69.1758 9.12891 69.7734 9.53125 70.2578 9.98438C70.75 10.4297 71.1211 10.9375 71.3711 11.5078C71.6289 12.0781 71.7578 12.7227 71.7578 13.4414C71.7578 14.207 71.6094 14.8867 71.3125 15.4805C71.0156 16.0742 70.5898 16.5781 70.0352 16.9922C69.4805 17.3984 68.8164 17.707 68.043 17.918C67.2695 18.1289 66.4062 18.2344 65.4531 18.2344C64.5781 18.2344 63.7148 18.125 62.8633 17.9062C62.0195 17.6797 61.2539 17.3359 60.5664 16.875C59.8789 16.4062 59.3281 15.8086 58.9141 15.082C58.5078 14.3477 58.3047 13.4766 58.3047 12.4688H62.4297C62.4297 12.9688 62.4961 13.3906 62.6289 13.7344C62.7617 14.0781 62.957 14.3555 63.2148 14.5664C63.4727 14.7695 63.7891 14.918 64.1641 15.0117C64.5391 15.0977 64.9688 15.1406 65.4531 15.1406C65.9766 15.1406 66.3984 15.0664 66.7188 14.918C67.0391 14.7617 67.2734 14.5586 67.4219 14.3086C67.5703 14.0508 67.6445 13.7695 67.6445 13.4648Z" fill="#0CC343"/>
<path d="M80.7812 10.5117H76.3984L76.375 8.09766H80.0547C80.7031 8.09766 81.2344 8.01562 81.6484 7.85156C82.0625 7.67969 82.3711 7.43359 82.5742 7.11328C82.7852 6.78516 82.8906 6.38672 82.8906 5.91797C82.8906 5.38672 82.7891 4.95703 82.5859 4.62891C82.3906 4.30078 82.082 4.0625 81.6602 3.91406C81.2461 3.76562 80.7109 3.69141 80.0547 3.69141H77.6172V18H74.1016V0.9375H80.0547C81.0469 0.9375 81.9336 1.03125 82.7148 1.21875C83.5039 1.40625 84.1719 1.69141 84.7188 2.07422C85.2656 2.45703 85.6836 2.94141 85.9727 3.52734C86.2617 4.10547 86.4062 4.79297 86.4062 5.58984C86.4062 6.29297 86.2461 6.94141 85.9258 7.53516C85.6133 8.12891 85.1172 8.61328 84.4375 8.98828C83.7656 9.36328 82.8867 9.57031 81.8008 9.60938L80.7812 10.5117ZM80.6289 18H75.4375L76.8086 15.2578H80.6289C81.2461 15.2578 81.75 15.1602 82.1406 14.9648C82.5312 14.7617 82.8203 14.4883 83.0078 14.1445C83.1953 13.8008 83.2891 13.4062 83.2891 12.9609C83.2891 12.4609 83.2031 12.0273 83.0312 11.6602C82.8672 11.293 82.6016 11.0117 82.2344 10.8164C81.8672 10.6133 81.3828 10.5117 80.7812 10.5117H77.3945L77.418 8.09766H81.6367L82.4453 9.04688C83.4844 9.03125 84.3203 9.21484 84.9531 9.59766C85.5938 9.97266 86.0586 10.4609 86.3477 11.0625C86.6445 11.6641 86.793 12.3086 86.793 12.9961C86.793 14.0898 86.5547 15.0117 86.0781 15.7617C85.6016 16.5039 84.9023 17.0625 83.9805 17.4375C83.0664 17.8125 81.9492 18 80.6289 18ZM100.879 15.2578V18H91.7969V15.2578H100.879ZM92.9453 0.9375V18H89.4297V0.9375H92.9453ZM99.6953 7.88672V10.5586H91.7969V7.88672H99.6953ZM100.867 0.9375V3.69141H91.7969V0.9375H100.867ZM111.812 13.5352C111.812 13.2305 111.766 12.957 111.672 12.7148C111.586 12.4648 111.422 12.2383 111.18 12.0352C110.938 11.8242 110.598 11.6172 110.16 11.4141C109.723 11.2109 109.156 11 108.461 10.7812C107.688 10.5312 106.953 10.25 106.258 9.9375C105.57 9.625 104.961 9.26172 104.43 8.84766C103.906 8.42578 103.492 7.9375 103.188 7.38281C102.891 6.82812 102.742 6.18359 102.742 5.44922C102.742 4.73828 102.898 4.09375 103.211 3.51562C103.523 2.92969 103.961 2.42969 104.523 2.01562C105.086 1.59375 105.75 1.26953 106.516 1.04297C107.289 0.816406 108.137 0.703125 109.059 0.703125C110.316 0.703125 111.414 0.929687 112.352 1.38281C113.289 1.83594 114.016 2.45703 114.531 3.24609C115.055 4.03516 115.316 4.9375 115.316 5.95312H111.824C111.824 5.45312 111.719 5.01562 111.508 4.64062C111.305 4.25781 110.992 3.95703 110.57 3.73828C110.156 3.51953 109.633 3.41016 109 3.41016C108.391 3.41016 107.883 3.50391 107.477 3.69141C107.07 3.87109 106.766 4.11719 106.562 4.42969C106.359 4.73438 106.258 5.07812 106.258 5.46094C106.258 5.75 106.328 6.01172 106.469 6.24609C106.617 6.48047 106.836 6.69922 107.125 6.90234C107.414 7.10547 107.77 7.29688 108.191 7.47656C108.613 7.65625 109.102 7.83203 109.656 8.00391C110.586 8.28516 111.402 8.60156 112.105 8.95312C112.816 9.30469 113.41 9.69922 113.887 10.1367C114.363 10.5742 114.723 11.0703 114.965 11.625C115.207 12.1797 115.328 12.8086 115.328 13.5117C115.328 14.2539 115.184 14.918 114.895 15.5039C114.605 16.0898 114.188 16.5859 113.641 16.9922C113.094 17.3984 112.441 17.707 111.684 17.918C110.926 18.1289 110.078 18.2344 109.141 18.2344C108.297 18.2344 107.465 18.125 106.645 17.9062C105.824 17.6797 105.078 17.3398 104.406 16.8867C103.742 16.4336 103.211 15.8555 102.812 15.1523C102.414 14.4492 102.215 13.6172 102.215 12.6562H105.742C105.742 13.1875 105.824 13.6367 105.988 14.0039C106.152 14.3711 106.383 14.668 106.68 14.8945C106.984 15.1211 107.344 15.2852 107.758 15.3867C108.18 15.4883 108.641 15.5391 109.141 15.5391C109.75 15.5391 110.25 15.4531 110.641 15.2812C111.039 15.1094 111.332 14.8711 111.52 14.5664C111.715 14.2617 111.812 13.918 111.812 13.5352ZM125.348 0.9375V18H121.844V0.9375H125.348ZM130.598 0.9375V3.69141H116.676V0.9375H130.598Z" fill="#585858"/>
</svg>
