<svg width="141" height="54" viewBox="0 0 141 54" fill="none" xmlns="http://www.w3.org/2000/svg">
<circle cx="18.7383" cy="27" r="18.2383" fill="#0CC343"/>
<path d="M24.1823 29.1996C24.1823 32.3096 21.6611 34.8308 18.5511 34.8308C15.4411 34.8308 12.9199 32.3096 12.9199 29.1996C12.9199 26.0896 15.4411 19.198 18.5511 19.198C21.6611 19.198 24.1823 26.0896 24.1823 29.1996Z" fill="white"/>
<path d="M49.3232 20.7031H51.5557L54.8428 30.0986L58.1299 20.7031H60.3623L55.7393 33.5H53.9463L49.3232 20.7031ZM48.1191 20.7031H50.3428L50.7471 29.8613V33.5H48.1191V20.7031ZM59.3428 20.7031H61.5752V33.5H58.9385V29.8613L59.3428 20.7031ZM74.3984 26.8027V27.4092C74.3984 28.3818 74.2666 29.2549 74.0029 30.0283C73.7393 30.8018 73.3672 31.4609 72.8867 32.0059C72.4062 32.5449 71.832 32.958 71.1641 33.2451C70.502 33.5322 69.7666 33.6758 68.958 33.6758C68.1553 33.6758 67.4199 33.5322 66.752 33.2451C66.0898 32.958 65.5156 32.5449 65.0293 32.0059C64.543 31.4609 64.165 30.8018 63.8955 30.0283C63.6318 29.2549 63.5 28.3818 63.5 27.4092V26.8027C63.5 25.8242 63.6318 24.9512 63.8955 24.1836C64.1592 23.4102 64.5312 22.751 65.0117 22.2061C65.498 21.6611 66.0723 21.2451 66.7344 20.958C67.4023 20.6709 68.1377 20.5273 68.9404 20.5273C69.749 20.5273 70.4844 20.6709 71.1465 20.958C71.8145 21.2451 72.3887 21.6611 72.8691 22.2061C73.3555 22.751 73.7305 23.4102 73.9941 24.1836C74.2637 24.9512 74.3984 25.8242 74.3984 26.8027ZM71.7354 27.4092V26.7852C71.7354 26.1055 71.6738 25.5078 71.5508 24.9922C71.4277 24.4766 71.2461 24.043 71.0059 23.6914C70.7656 23.3398 70.4727 23.0762 70.127 22.9004C69.7812 22.7188 69.3857 22.6279 68.9404 22.6279C68.4951 22.6279 68.0996 22.7188 67.7539 22.9004C67.4141 23.0762 67.124 23.3398 66.8838 23.6914C66.6494 24.043 66.4707 24.4766 66.3477 24.9922C66.2246 25.5078 66.1631 26.1055 66.1631 26.7852V27.4092C66.1631 28.083 66.2246 28.6807 66.3477 29.2021C66.4707 29.7178 66.6523 30.1543 66.8926 30.5117C67.1328 30.8633 67.4258 31.1299 67.7715 31.3115C68.1172 31.4932 68.5127 31.584 68.958 31.584C69.4033 31.584 69.7988 31.4932 70.1445 31.3115C70.4902 31.1299 70.7803 30.8633 71.0146 30.5117C71.249 30.1543 71.4277 29.7178 71.5508 29.2021C71.6738 28.6807 71.7354 28.083 71.7354 27.4092ZM80.2256 33.5H77.4395L77.457 31.4434H80.2256C80.917 31.4434 81.5 31.2881 81.9746 30.9775C82.4492 30.6611 82.8066 30.2012 83.0469 29.5977C83.293 28.9941 83.416 28.2646 83.416 27.4092V26.7852C83.416 26.1289 83.3457 25.5518 83.2051 25.0537C83.0703 24.5557 82.8682 24.1367 82.5986 23.7969C82.3291 23.457 81.998 23.2021 81.6055 23.0322C81.2129 22.8564 80.7617 22.7686 80.252 22.7686H77.3867V20.7031H80.252C81.1074 20.7031 81.8896 20.8496 82.5986 21.1426C83.3135 21.4297 83.9316 21.8428 84.4531 22.3818C84.9746 22.9209 85.376 23.5654 85.6572 24.3154C85.9443 25.0596 86.0879 25.8887 86.0879 26.8027V27.4092C86.0879 28.3174 85.9443 29.1465 85.6572 29.8965C85.376 30.6465 84.9746 31.291 84.4531 31.8301C83.9375 32.3633 83.3193 32.7764 82.5986 33.0693C81.8838 33.3564 81.0928 33.5 80.2256 33.5ZM78.9336 20.7031V33.5H76.2969V20.7031H78.9336ZM96.5908 31.4434V33.5H89.7793V31.4434H96.5908ZM90.6406 20.7031V33.5H88.0039V20.7031H90.6406ZM95.7031 25.915V27.9189H89.7793V25.915H95.7031ZM96.582 20.7031V22.7686H89.7793V20.7031H96.582ZM104.791 30.1514C104.791 29.9229 104.756 29.7178 104.686 29.5361C104.621 29.3486 104.498 29.1787 104.316 29.0264C104.135 28.8682 103.88 28.7129 103.552 28.5605C103.224 28.4082 102.799 28.25 102.277 28.0859C101.697 27.8984 101.146 27.6875 100.625 27.4531C100.109 27.2188 99.6523 26.9463 99.2539 26.6357C98.8613 26.3193 98.5508 25.9531 98.3223 25.5371C98.0996 25.1211 97.9883 24.6377 97.9883 24.0869C97.9883 23.5537 98.1055 23.0703 98.3398 22.6367C98.5742 22.1973 98.9023 21.8223 99.3242 21.5117C99.7461 21.1953 100.244 20.9521 100.818 20.7822C101.398 20.6123 102.034 20.5273 102.726 20.5273C103.669 20.5273 104.492 20.6973 105.195 21.0371C105.898 21.377 106.443 21.8428 106.83 22.4346C107.223 23.0264 107.419 23.7031 107.419 24.4648H104.8C104.8 24.0898 104.721 23.7617 104.562 23.4805C104.41 23.1934 104.176 22.9678 103.859 22.8037C103.549 22.6396 103.156 22.5576 102.682 22.5576C102.225 22.5576 101.844 22.6279 101.539 22.7686C101.234 22.9033 101.006 23.0879 100.854 23.3223C100.701 23.5508 100.625 23.8086 100.625 24.0957C100.625 24.3125 100.678 24.5088 100.783 24.6846C100.895 24.8604 101.059 25.0244 101.275 25.1768C101.492 25.3291 101.759 25.4727 102.075 25.6074C102.392 25.7422 102.758 25.874 103.174 26.0029C103.871 26.2139 104.483 26.4512 105.011 26.7148C105.544 26.9785 105.989 27.2744 106.347 27.6025C106.704 27.9307 106.974 28.3027 107.155 28.7188C107.337 29.1348 107.428 29.6064 107.428 30.1338C107.428 30.6904 107.319 31.1885 107.103 31.6279C106.886 32.0674 106.572 32.4395 106.162 32.7441C105.752 33.0488 105.263 33.2803 104.694 33.4385C104.126 33.5967 103.49 33.6758 102.787 33.6758C102.154 33.6758 101.53 33.5938 100.915 33.4297C100.3 33.2598 99.7402 33.0049 99.2363 32.665C98.7383 32.3252 98.3398 31.8916 98.041 31.3643C97.7422 30.8369 97.5928 30.2129 97.5928 29.4922H100.238C100.238 29.8906 100.3 30.2275 100.423 30.5029C100.546 30.7783 100.719 31.001 100.941 31.1709C101.17 31.3408 101.439 31.4639 101.75 31.54C102.066 31.6162 102.412 31.6543 102.787 31.6543C103.244 31.6543 103.619 31.5898 103.912 31.4609C104.211 31.332 104.431 31.1533 104.571 30.9248C104.718 30.6963 104.791 30.4385 104.791 30.1514ZM115.883 30.1514C115.883 29.9229 115.848 29.7178 115.777 29.5361C115.713 29.3486 115.59 29.1787 115.408 29.0264C115.227 28.8682 114.972 28.7129 114.644 28.5605C114.315 28.4082 113.891 28.25 113.369 28.0859C112.789 27.8984 112.238 27.6875 111.717 27.4531C111.201 27.2188 110.744 26.9463 110.346 26.6357C109.953 26.3193 109.643 25.9531 109.414 25.5371C109.191 25.1211 109.08 24.6377 109.08 24.0869C109.08 23.5537 109.197 23.0703 109.432 22.6367C109.666 22.1973 109.994 21.8223 110.416 21.5117C110.838 21.1953 111.336 20.9521 111.91 20.7822C112.49 20.6123 113.126 20.5273 113.817 20.5273C114.761 20.5273 115.584 20.6973 116.287 21.0371C116.99 21.377 117.535 21.8428 117.922 22.4346C118.314 23.0264 118.511 23.7031 118.511 24.4648H115.892C115.892 24.0898 115.812 23.7617 115.654 23.4805C115.502 23.1934 115.268 22.9678 114.951 22.8037C114.641 22.6396 114.248 22.5576 113.773 22.5576C113.316 22.5576 112.936 22.6279 112.631 22.7686C112.326 22.9033 112.098 23.0879 111.945 23.3223C111.793 23.5508 111.717 23.8086 111.717 24.0957C111.717 24.3125 111.77 24.5088 111.875 24.6846C111.986 24.8604 112.15 25.0244 112.367 25.1768C112.584 25.3291 112.851 25.4727 113.167 25.6074C113.483 25.7422 113.85 25.874 114.266 26.0029C114.963 26.2139 115.575 26.4512 116.103 26.7148C116.636 26.9785 117.081 27.2744 117.438 27.6025C117.796 27.9307 118.065 28.3027 118.247 28.7188C118.429 29.1348 118.52 29.6064 118.52 30.1338C118.52 30.6904 118.411 31.1885 118.194 31.6279C117.978 32.0674 117.664 32.4395 117.254 32.7441C116.844 33.0488 116.354 33.2803 115.786 33.4385C115.218 33.5967 114.582 33.6758 113.879 33.6758C113.246 33.6758 112.622 33.5938 112.007 33.4297C111.392 33.2598 110.832 33.0049 110.328 32.665C109.83 32.3252 109.432 31.8916 109.133 31.3643C108.834 30.8369 108.685 30.2129 108.685 29.4922H111.33C111.33 29.8906 111.392 30.2275 111.515 30.5029C111.638 30.7783 111.811 31.001 112.033 31.1709C112.262 31.3408 112.531 31.4639 112.842 31.54C113.158 31.6162 113.504 31.6543 113.879 31.6543C114.336 31.6543 114.711 31.5898 115.004 31.4609C115.303 31.332 115.522 31.1533 115.663 30.9248C115.81 30.6963 115.883 30.4385 115.883 30.1514ZM128.899 31.4434V33.5H122.088V31.4434H128.899ZM122.949 20.7031V33.5H120.312V20.7031H122.949ZM128.012 25.915V27.9189H122.088V25.915H128.012ZM128.891 20.7031V22.7686H122.088V20.7031H128.891ZM132.195 20.7031L134.867 26.5391L137.539 20.7031H140.413L136.203 28.8418V33.5H133.531V28.8418L129.312 20.7031H132.195Z" fill="#0CC343"/>
</svg>
