<svg width="123" height="123" viewBox="0 0 123 123" fill="none" xmlns="http://www.w3.org/2000/svg">
<rect x="11" y="11" width="100" height="100" rx="20" fill="#E7FFEE"/>
<rect x="25.8828" width="100" height="100" rx="20" transform="rotate(15 25.8828 0)" fill="#E7FFEE"/>
<g clip-path="url(#clip0_289_868)">
<path d="M59.011 54.8914H56.2344V57.668H59.011C59.7778 57.668 60.3994 57.0464 60.3994 56.2797C60.3994 55.513 59.7778 54.8914 59.011 54.8914Z" fill="#FFB35C"/>
<path d="M59.011 64.6096H56.2344V67.3863H59.011C59.7778 67.3863 60.3994 66.7647 60.3994 65.9979C60.3994 65.2312 59.7778 64.6096 59.011 64.6096Z" fill="#FFB35C"/>
<path d="M57.6217 65.9979C57.6217 65.2312 57.0001 64.6096 56.2334 64.6096H55.4467V57.6679H56.2334C57.0001 57.6679 57.6217 57.0463 57.6217 56.2796C57.6217 55.5129 57.0001 54.8913 56.2334 54.8913H55.4467V51.3279C55.4467 50.5612 54.8251 49.9396 54.0583 49.9396C53.2916 49.9396 52.67 50.5612 52.67 51.3279V54.8913H45.7284V51.3279C45.7284 50.5612 45.1068 49.9396 44.34 49.9396C43.5733 49.9396 42.9517 50.5612 42.9517 51.3279V54.8913H39.3883C38.6216 54.8913 38 55.5129 38 56.2796C38 57.0463 38.6216 57.6679 39.3883 57.6679H42.9517V64.6096H39.3883C38.6216 64.6096 38 65.2312 38 65.9979C38 66.7647 38.6216 67.3863 39.3883 67.3863H42.9517V70.9496C42.9517 71.7164 43.5733 72.338 44.34 72.338C45.1068 72.338 45.7284 71.7164 45.7284 70.9496V67.3863H52.67V70.9496C52.67 71.7164 53.2916 72.338 54.0583 72.338C54.8251 72.338 55.4467 71.7164 55.4467 70.9496V67.3863H56.2334C57.0001 67.3863 57.6217 66.7647 57.6217 65.9979ZM52.67 64.6096H45.7284V57.6679H52.67V64.6096Z" fill="#0E6823"/>
<path d="M79.8347 75.67V42.165C79.8347 39.8647 77.97 38 75.6697 38H63.1748C60.8745 38 59.0098 39.8647 59.0098 42.165C59.0098 44.4653 60.8745 46.33 63.1748 46.33V75.67C60.8745 75.67 59.0098 77.5347 59.0098 79.835C59.0098 82.1353 60.8745 84 63.1748 84H79.8347C82.135 84 83.9997 82.1353 83.9997 79.835C83.9997 77.5347 82.135 75.67 79.8347 75.67Z" fill="#00D941"/>
<path d="M74.2821 78.5855V42.3039C74.2821 41.5371 73.6605 40.9155 72.8938 40.9155H63.1754C62.4087 40.9155 61.7871 41.5371 61.7871 42.3039C61.7871 43.0706 62.4087 43.6922 63.1754 43.6922H65.9521V78.5855H63.1754C62.4087 78.5855 61.7871 79.2071 61.7871 79.9739C61.7871 80.7406 62.4087 81.3622 63.1754 81.3622H77.0587C75.5253 81.3622 74.2821 80.1191 74.2821 78.5855Z" fill="#41FF7A"/>
</g>
<defs>
<clipPath id="clip0_289_868">
<rect width="46" height="46" fill="white" transform="translate(38 38)"/>
</clipPath>
</defs>
</svg>
