<svg width="264" height="235" viewBox="0 0 264 235" fill="none" xmlns="http://www.w3.org/2000/svg">
<path d="M109.649 141.138C105.404 141.423 102.126 139.993 100.666 135.816C99.2151 131.681 100.961 128.279 104.571 125C100.191 123.549 96.7584 121.432 96.7247 116.484C96.6969 112.24 99.0435 109.526 102.769 107.793C103.16 107.688 103.544 107.597 103.935 107.492C105.948 107.292 108.169 107.254 109.55 108.559C112.081 110.939 112.425 109.205 113.931 107.151C116 104.304 116.459 102.91 112.983 101.468C111.719 100.935 111.055 99.0576 110.128 97.7939C110.012 97.2378 109.895 96.6818 109.771 96.1388C109.939 92.1581 111.298 88.8274 115.205 87.0777C119.54 85.1378 122.919 86.7909 126.169 90.2722C127.706 85.6108 130.079 82.1397 134.952 81.8392C139.12 81.5964 141.674 83.8284 143.166 87.4852C143.248 87.8766 143.317 88.2603 143.399 88.6516C143.055 90.4395 143.293 92.7242 142.267 93.9006C139.507 97.0834 141.5 97.4104 143.706 99.0177C146.36 100.951 147.094 100.299 148.583 97.7484C149.421 96.2961 151.396 95.4972 152.861 94.3887C153.272 94.2788 153.692 94.1558 154.104 94.0458C158.395 93.6616 161.648 95.1307 163.132 99.2681C164.604 103.398 162.948 106.819 159.355 110.072C163.514 111.658 167.106 113.602 167.14 118.605C167.168 122.848 164.846 125.577 161.179 127.383C160.705 127.509 160.239 127.622 159.778 127.756C158.025 127.485 155.836 127.776 154.614 126.819C151.975 124.751 151.352 125.831 149.809 128.384C148.315 130.86 147.445 131.951 150.545 133.363C151.962 134.007 152.678 136.077 153.701 137.489C153.8 137.963 153.899 138.436 154.011 138.918C154.055 143.189 152.462 146.594 148.294 148.293C144.155 149.974 140.841 148.63 137.858 145.023C136.072 149.588 133.618 153.244 128.542 153.403C124.641 153.52 122.212 151.363 120.673 148.002C120.548 147.404 120.435 146.815 120.303 146.23C120.26 143.219 121.406 140.587 123.365 138.303C119.686 135.425 116.314 133.542 113.279 139.31C112.914 140.005 111.768 140.3 110.976 140.773C110.514 140.907 110.082 141.022 109.649 141.138ZM136.598 139.978C135.224 137.148 142.847 135.494 137.784 132.388C135.203 130.805 134.015 131.361 132.467 133.894C129.206 139.201 136.608 136.801 136.598 139.978ZM109.604 123.7C112.258 122.557 114.367 130.365 117.54 123.332C120.056 117.735 114.39 119.911 113.491 117.531C112.856 120.114 110.985 121.462 109.604 123.7ZM154.416 111.825C147.996 108.831 148.129 108.948 147.043 110.304C143.289 115.024 148.024 115.521 150.365 118.038C150.993 115.163 152.859 113.633 154.416 111.825ZM127.411 95.0722C126.313 97.5722 125.295 99.6705 123.574 101.685C126.199 101.136 127.128 106.987 130.881 102.213C135.517 96.3004 127.289 98.2358 127.411 95.0722ZM129.841 115.809C129.101 117.213 126.925 118.555 129.894 119.6C131.397 120.133 132.496 122.167 134.08 119.135C135.161 117.074 135.542 116.244 133.298 115.081C131.615 114.204 130.563 113.333 129.841 115.809Z" fill="#EFFFF4"/>
<path d="M142.685 89.3819C142.603 88.9906 142.534 88.6069 142.452 88.2156C142.61 87.8798 142.867 87.5503 142.926 87.2084C143.602 82.7446 145.637 79.3749 150.388 78.6946C154.252 78.1421 157.136 79.8731 158.398 83.5155C159.951 87.9825 157.821 91.3123 154.119 93.9415C153.836 94.1475 153.641 94.5149 153.408 94.8053C152.996 94.9152 152.576 95.0381 152.164 95.148C148.15 94.5664 145.004 92.6226 142.685 89.3819Z" fill="#EFFFF4"/>
<path d="M154.745 139.644C154.646 139.171 154.547 138.697 154.436 138.216C155.132 134.16 157.176 130.94 160.512 128.485C160.985 128.359 161.451 128.245 161.912 128.111C163.124 128.397 164.36 128.589 165.524 129.007C168.816 130.194 170.867 132.462 170.845 136.208C170.821 139.628 169.184 142.25 166.11 143.82C162.739 145.535 159.739 144.759 157.18 142.398C156.273 141.596 155.55 140.582 154.745 139.644Z" fill="#EFFFF4"/>
<path d="M121.024 145.516C121.149 146.114 121.261 146.703 121.394 147.288C121.121 148.165 120.84 149.055 120.554 149.925C119.356 153.658 117.058 156.239 113.073 156.574C109.418 156.875 106.728 155.19 105.431 151.797C104.029 148.105 105.401 144.945 108.314 142.287C108.998 141.659 109.707 141.046 110.391 140.417C110.823 140.302 111.264 140.174 111.696 140.058C115.606 140.559 118.669 142.47 121.024 145.516Z" fill="#EFFFF4"/>
<path d="M103.209 106.779C102.817 106.883 102.434 106.974 102.043 107.079C97.5714 106.076 93.1689 104.935 93.0236 99.092C92.9324 95.6919 94.5484 93.0213 97.6436 91.4454C102.934 88.7729 106.07 91.9694 109.072 95.4082C109.189 95.9643 109.305 96.5203 109.429 97.0633C108.585 101.083 106.436 104.276 103.209 106.779Z" fill="#EFFFF4"/>
<path d="M156.65 161.121C154.485 164.754 149.378 166.116 145.995 163.975C142.786 161.94 141.775 157.154 143.846 153.699C146.02 150.054 151.106 148.697 154.502 150.845C157.69 152.887 158.701 157.672 156.65 161.121Z" fill="#EFFFF4"/>
<path d="M84.0459 125.803C80.6349 123.789 79.6126 118.692 81.9319 115.225C84.1409 111.907 88.8863 110.684 92.1354 112.6C95.5463 114.614 96.5686 119.712 94.2494 123.179C92.0528 126.505 87.2949 127.72 84.0459 125.803Z" fill="#EFFFF4"/>
<path d="M98.5201 139.5C96.4417 143.131 91.3718 144.571 87.9604 142.502C84.7357 140.547 83.6668 135.798 85.6393 132.337C87.7177 128.706 92.7875 127.266 96.199 129.335C99.4362 131.298 100.513 136.033 98.5201 139.5Z" fill="#EFFFF4"/>
<path d="M171.237 122.377C167.94 120.072 167.259 114.894 169.815 111.571C172.285 108.357 177.115 107.438 180.185 109.587C183.482 111.892 184.154 117.083 181.607 120.393C179.149 123.614 174.319 124.533 171.237 122.377Z" fill="#EFFFF4"/>
<path d="M117.456 71.0689C120.725 72.8711 121.975 77.5491 120.119 81.099C118.202 84.7739 113.183 86.4063 109.682 84.4813C106.219 82.5789 105.065 77.5274 107.301 73.974C109.423 70.6032 114.15 69.2441 117.456 71.0689Z" fill="#EFFFF4"/>
<path d="M178.015 103.119C175.763 106.698 170.642 107.945 167.349 105.715C164.197 103.588 163.306 98.8032 165.444 95.4063C167.696 91.8268 172.817 90.5802 176.11 92.8107C179.262 94.9376 180.145 99.7352 178.015 103.119Z" fill="#EFFFF4"/>
<path d="M134.429 67.2329C137.82 69.307 138.768 74.4136 136.399 77.8505C134.132 81.1514 129.361 82.3047 126.165 80.3308C122.774 78.2567 121.826 73.1501 124.183 69.7057C126.454 66.4253 131.233 65.259 134.429 67.2329Z" fill="#EFFFF4"/>
<path d="M139.871 165.145C137.681 168.762 132.585 170.078 129.231 167.918C126.039 165.857 125.073 161.081 127.161 157.654C129.351 154.037 134.434 152.713 137.793 154.894C140.985 156.955 141.947 161.71 139.871 165.145Z" fill="#EFFFF4"/>
<path d="M90.4717 148.727C93.3118 145.306 96.5752 144.533 100.137 146.747C103.537 148.862 104.133 153.432 101.449 156.769C98.6346 160.26 95.2123 160.792 91.8265 158.379C88.3741 155.908 88.2743 152.467 90.4717 148.727Z" fill="#EFFFF4"/>
<path d="M163.11 159.577C159.753 157.092 158.888 153.888 161.075 150C163.161 146.303 167.741 145.124 171.014 147.468C174.428 149.916 175.094 153.358 172.674 157.069C170.25 160.814 166.853 161.416 163.11 159.577Z" fill="#EFFFF4"/>
<path d="M89.9587 105.931C87.3552 109.496 84.1162 110.697 80.4391 108.503C76.7994 106.332 76.0184 102.909 78.3471 99.0698C80.68 95.2509 84.1111 94.292 87.7753 96.4239C91.4686 98.5915 91.9478 101.975 89.9587 105.931Z" fill="#EFFFF4"/>
<path d="M122.713 168.89C120.146 172.423 116.883 173.663 113.198 171.591C109.56 169.529 108.721 166.143 110.764 162.184C112.713 158.402 117.277 157.087 120.632 159.301C124.153 161.634 124.69 164.927 122.713 168.89Z" fill="#EFFFF4"/>
<path d="M175.762 138.815C172.433 136.257 171.638 133.024 173.887 129.174C176.035 125.514 180.641 124.404 183.865 126.827C187.23 129.353 187.821 132.804 185.36 136.472C182.853 140.184 179.448 140.691 175.762 138.815Z" fill="#EFFFF4"/>
<path d="M100.881 75.8327C104.156 78.4481 104.924 81.7543 102.417 85.4667C99.902 89.1921 96.4037 89.9298 92.8874 87.6178C89.3338 85.2832 88.8083 81.782 91.282 78.0676C93.7882 74.301 97.1859 73.8619 100.881 75.8327Z" fill="#EFFFF4"/>
<path d="M152.964 73.2115C150.093 76.9563 146.8 78.0525 143.192 75.7751C139.597 73.5052 138.923 70.021 141.351 66.242C143.779 62.4629 147.265 61.609 150.872 63.8323C154.542 66.0932 154.802 69.5245 152.964 73.2115Z" fill="#EFFFF4"/>
<path d="M173.544 86.1552C170.886 89.6693 167.675 90.6893 163.982 88.6301C160.452 86.6692 159.603 82.1443 162.146 78.7044C164.778 75.121 168.19 74.3303 171.699 76.6016C175.244 78.8955 175.596 82.2918 173.544 86.1552Z" fill="#EFFFF4"/>
<path d="M72.0289 145.581C69.0908 143.278 68.0658 140.247 70.0757 136.863C72.09 133.499 75.4335 132.542 78.6441 134.381C81.8673 136.228 82.6226 139.58 80.6289 142.938C78.6439 146.337 75.4331 146.89 72.0289 145.581Z" fill="#EFFFF4"/>
<path d="M96.65 175.029C93.7699 172.743 92.7324 169.705 94.7505 166.308C96.7729 162.931 100.149 161.976 103.368 163.802C106.604 165.656 107.363 169.03 105.374 172.408C103.365 175.846 100.146 176.412 96.65 175.029Z" fill="#EFFFF4"/>
<path d="M187.551 144.087C190.075 146.283 190.897 149.227 188.995 152.659C187.263 155.762 182.455 156.893 179.894 154.783C177.071 152.459 176.516 149.336 178.555 145.987C180.281 143.113 184.649 142.22 187.551 144.087Z" fill="#EFFFF4"/>
<path d="M85.4662 88.9187C82.8133 92.0403 79.734 93.1228 76.6157 91.106C73.5223 89.1044 72.874 85.7437 75.0178 82.4752C77.1534 79.2199 80.5157 78.3989 83.6378 80.382C86.7849 82.3802 86.9614 85.6168 85.4662 88.9187Z" fill="#EFFFF4"/>
<path d="M167.15 60.1925C170.026 62.4578 171.051 65.4886 169.016 68.8576C167.002 72.2211 163.646 73.1707 160.443 71.3187C157.228 69.4591 156.485 66.1139 158.479 62.7559C160.489 59.3719 163.687 58.812 167.15 60.1925Z" fill="#EFFFF4"/>
<path d="M131.66 60.1877C129.283 63.2248 126.259 64.4123 123.035 62.5651C119.831 60.7125 119.072 57.3924 121.058 54.0465C123.052 50.6875 126.389 49.743 129.588 51.575C132.82 53.4091 133.215 56.5981 131.66 60.1877Z" fill="#EFFFF4"/>
<path d="M142.788 181.472C140.204 184.456 137.101 185.577 133.957 183.546C130.839 181.529 130.182 178.127 132.342 174.833C134.507 171.559 137.906 170.706 141.045 172.717C144.204 174.723 144.472 177.979 142.788 181.472Z" fill="#EFFFF4"/>
<path d="M191.867 89.6271C194.748 91.913 195.785 94.9514 193.767 98.3485C191.744 101.725 188.368 102.68 185.145 100.834C181.909 98.9795 181.157 95.5931 183.159 92.2221C185.153 88.8099 188.372 88.2446 191.867 89.6271Z" fill="#EFFFF4"/>
<path d="M74.7943 117.602C77.7424 120.109 78.6438 123.173 76.4802 126.445C74.3453 129.7 70.9885 130.541 67.8674 128.558C64.7669 126.571 64.1313 123.218 66.2495 119.936C68.4045 116.622 71.6003 116.258 74.7943 117.602Z" fill="#EFFFF4"/>
<path d="M189.024 117.649C186.144 115.363 185.115 112.311 187.145 108.922C189.168 105.545 192.544 104.59 195.78 106.444C199.016 108.298 199.755 111.677 197.765 115.056C195.731 118.479 192.499 119.037 189.024 117.649Z" fill="#EFFFF4"/>
<path d="M114.985 64.0963C112.547 67.204 109.514 68.4046 106.298 66.5444C103.094 64.6918 102.343 61.3587 104.329 58.0127C106.324 54.6538 109.652 53.7223 112.859 55.5413C116.117 57.3904 116.462 60.6035 114.985 64.0963Z" fill="#EFFFF4"/>
<path d="M159.522 177.512C156.983 180.451 154.015 181.438 150.741 179.669C147.767 178.082 146.933 173.259 149.168 170.532C151.632 167.548 154.862 166.664 157.919 168.752C160.955 170.845 161.214 174.059 159.522 177.512Z" fill="#EFFFF4"/>
<path d="M199.76 123.724C202.648 125.943 203.226 128.757 201.048 131.914C198.834 135.102 195.854 135.561 192.913 133.508C190.152 131.582 189.735 128.758 191.662 125.755C193.743 122.503 196.592 122.037 199.76 123.724Z" fill="#EFFFF4"/>
<path d="M167.872 175.366C164.831 173.091 164.114 170.336 166.175 167.145C168.236 163.954 171.14 163.233 174.178 165.129C177.229 167.033 177.749 169.938 175.746 173.146C173.681 176.425 170.832 176.783 167.872 175.366Z" fill="#EFFFF4"/>
<path d="M64.0407 111.389C61.2188 109.175 60.6582 106.389 62.8439 103.274C65.0541 100.119 67.9977 99.6919 70.9049 101.742C73.6459 103.674 74.0126 106.468 72.0855 109.417C69.9917 112.66 67.1759 113.075 64.0407 111.389Z" fill="#EFFFF4"/>
<path d="M187.622 73.4817C190.53 75.5865 191.268 78.3354 189.17 81.5584C187.051 84.7868 184.142 85.3782 181.124 83.4224C178.305 81.5874 177.782 78.8247 179.613 75.7816C181.608 72.4777 184.405 71.8726 187.622 73.4817Z" fill="#EFFFF4"/>
<path d="M90.0226 70.2783C86.908 68.12 86.0716 65.4191 88.1075 62.1585C90.1477 58.9184 93.0105 58.2089 96.0734 60.1201C98.9204 61.8824 99.5093 64.5949 97.7607 67.6702C95.8536 71.027 93.0722 71.606 90.0226 70.2783Z" fill="#EFFFF4"/>
<path d="M125.668 185.075C123.157 188.3 120.326 189.012 117.352 186.957C114.329 184.872 114.067 181.854 116.27 178.765C118.347 175.852 121.162 175.329 124.014 177.112C127.148 179.103 127.293 181.978 125.668 185.075Z" fill="#EFFFF4"/>
<path d="M76.336 161.817C73.2412 159.545 72.5528 156.772 74.6882 153.572C76.8318 150.358 79.7496 149.808 82.7511 151.79C85.5534 153.651 86.023 156.417 84.1793 159.453C82.1525 162.809 79.3243 163.215 76.336 161.817Z" fill="#EFFFF4"/>
<path d="M147.73 56.2008C145.386 59.1855 142.601 59.9067 139.639 57.8592C136.64 55.789 136.379 52.8252 138.566 49.7629C140.626 46.8757 143.409 46.3508 146.22 48.145C149.312 50.0923 149.568 52.9271 147.73 56.2008Z" fill="#EFFFF4"/>
<path d="M184.766 170.746C182.353 168.51 181.641 165.884 183.62 163.237C185.538 160.66 188.389 160.052 190.899 161.969C193.147 163.674 193.587 166.35 191.895 168.866C190.045 171.61 187.381 171.864 184.766 170.746Z" fill="#EFFFF4"/>
<path d="M60.6481 94.1819C58.2422 92.3454 57.5229 89.8416 59.3361 87.0751C60.982 84.5489 63.5892 83.8642 66.0498 85.3383C68.722 86.9406 69.2778 89.6511 67.4771 92.4251C65.8269 94.9307 63.3458 95.3861 60.6481 94.1819Z" fill="#EFFFF4"/>
<path d="M183.146 57.271C185.393 58.8672 186.321 61.174 184.945 63.8998C183.426 66.881 180.706 67.8025 177.957 66.3512C175.182 64.8848 174.568 62.103 176.282 59.2762C177.857 56.6712 180.358 56.156 183.146 57.271Z" fill="#EFFFF4"/>
<path d="M204.879 147.951C202.944 150.5 200.402 151.549 197.704 149.985C195.019 148.429 194.454 145.622 196.152 142.821C197.724 140.249 200.393 139.493 202.902 140.781C205.681 142.214 206.096 144.876 204.879 147.951Z" fill="#EFFFF4"/>
<path d="M78.7845 64.52C81.0148 66.0881 81.9342 68.3538 80.5664 71.0667C79.0645 74.0218 76.3768 74.9454 73.6399 73.5016C70.8987 72.0372 70.2643 69.315 71.9779 66.4882C73.5573 63.9037 76.013 63.3789 78.7845 64.52Z" fill="#EFFFF4"/>
<path d="M87.7292 175.894C85.7978 178.41 83.259 179.424 80.611 177.837C77.9755 176.257 77.419 173.491 79.1459 170.726C80.7343 168.182 83.379 167.465 85.8594 168.771C88.5969 170.215 89.0159 172.844 87.7292 175.894Z" fill="#EFFFF4"/>
<path d="M164.083 51.5946C162.333 53.9861 159.963 54.9771 157.388 53.6854C154.568 52.2633 153.822 49.5268 155.478 46.6823C157.129 43.8171 159.922 43.0828 162.604 44.7267C165.041 46.2402 165.372 48.7611 164.083 51.5946Z" fill="#EFFFF4"/>
<path d="M101.226 190.638C98.8567 188.716 98.0629 186.167 99.8596 183.427C101.64 180.713 104.442 180.074 107.024 181.766C109.369 183.314 109.912 185.962 108.382 188.523C106.702 191.351 104.085 191.832 101.226 190.638Z" fill="#EFFFF4"/>
<path d="M155.632 194.889C153.26 193.163 152.746 190.909 154.535 188.29C156.158 185.912 158.411 185.408 160.711 186.838C163.271 188.427 163.639 190.807 161.878 193.408C160.264 195.828 158.071 196.152 155.632 194.889Z" fill="#EFFFF4"/>
<path d="M207.335 87.0169C209.959 88.806 210.63 90.9749 208.92 93.6597C207.38 96.0705 205.185 96.6996 202.837 95.3477C200.257 93.873 199.754 91.5722 201.403 88.9039C202.955 86.4464 205.115 86.1201 207.335 87.0169Z" fill="#EFFFF4"/>
<path d="M144.077 190.825C146.287 192.453 146.899 194.55 145.398 197.038C143.765 199.734 141.435 200.389 138.886 198.808C136.575 197.37 136.102 195.159 137.57 192.669C139.206 189.939 141.489 189.472 144.077 190.825Z" fill="#EFFFF4"/>
<path d="M211.363 103.73C213.987 105.519 214.662 107.709 212.943 110.406C211.396 112.83 209.193 113.472 206.82 112.106C204.227 110.623 203.707 108.294 205.385 105.608C206.924 103.142 209.101 102.79 211.363 103.73Z" fill="#EFFFF4"/>
<path d="M126.075 42.7274C124.352 44.9919 122.24 45.7076 119.908 44.2751C117.338 42.6991 116.987 40.2922 118.794 37.7551C120.446 35.4117 122.726 35.0318 124.977 36.5405C127.253 38.0643 127.437 40.244 126.075 42.7274Z" fill="#EFFFF4"/>
<path d="M57.2897 123.253C59.4299 124.91 59.9806 127.024 58.3959 129.48C56.6441 132.176 54.2372 132.622 51.8197 130.886C49.5852 129.298 49.3836 126.982 51.0309 124.618C52.7277 122.231 54.909 121.953 57.2897 123.253Z" fill="#EFFFF4"/>
<path d="M204.876 76.6156C203.321 78.694 201.28 79.5429 199.115 78.3918C196.705 77.1104 196.177 74.7397 197.725 72.3153C199.118 70.1387 201.364 69.5939 203.484 70.8439C205.622 72.1219 205.851 74.2571 204.876 76.6156Z" fill="#EFFFF4"/>
<path d="M142.62 38.5269C140.985 40.4853 138.94 41.3136 136.853 40.0657C134.553 38.6894 134.074 36.2947 135.71 33.9773C137.162 31.9263 139.42 31.389 141.468 32.7564C143.503 34.1162 143.674 36.2343 142.62 38.5269Z" fill="#EFFFF4"/>
<path d="M61.1283 139.886C63.3379 141.46 64.0041 143.554 62.4941 146.055C60.8457 148.777 58.4689 149.368 55.9695 147.709C53.6736 146.19 53.3609 143.915 54.9336 141.506C56.5307 139.058 58.6905 138.678 61.1283 139.886Z" fill="#EFFFF4"/>
<path d="M172.523 190.696C170.498 189.019 169.852 186.865 171.507 184.488C172.979 182.378 175.199 181.819 177.274 183.113C179.565 184.556 180.011 186.894 178.388 189.272C176.913 191.416 174.789 191.711 172.523 190.696Z" fill="#EFFFF4"/>
<path d="M52.7443 106.516C54.8096 108.128 55.545 110.138 54.2805 112.356C52.8818 114.816 50.4976 115.474 48.2398 114.033C46.2103 112.748 45.8153 110.495 47.1627 108.309C48.5427 106.072 50.6793 105.893 52.7443 106.516Z" fill="#EFFFF4"/>
<path d="M103.241 48.4185C100.893 46.5992 100.293 44.5093 101.849 42.0724C103.56 39.3878 105.95 38.9132 108.371 40.6151C110.589 42.1756 110.827 44.4598 109.213 46.8253C107.566 49.243 105.38 49.3915 103.241 48.4185Z" fill="#EFFFF4"/>
<path d="M210.556 128.405C208.703 126.617 208.107 124.439 209.883 122.172C211.426 120.195 213.679 119.691 215.661 121.109C217.812 122.665 218.175 125.025 216.44 127.281C214.885 129.304 212.753 129.558 210.556 128.405Z" fill="#EFFFF4"/>
<path d="M66.1417 162.968C64.4322 164.881 62.3906 165.621 60.2901 164.312C58.202 163.01 57.7039 160.783 59.0599 158.584C60.5707 156.137 62.9605 155.554 65.1869 157.101C67.1806 158.472 67.3233 160.663 66.1417 162.968Z" fill="#EFFFF4"/>
<path d="M126.922 194.84C129.122 196.677 129.805 198.799 128.203 201.172C126.772 203.271 124.557 203.852 122.486 202.578C120.204 201.176 119.763 198.859 121.319 196.477C122.741 194.336 124.886 194.199 126.922 194.84Z" fill="#EFFFF4"/>
<path d="M92.366 50.564C90.6277 52.4956 88.5573 53.2546 86.4931 51.859C84.4582 50.4992 84.0381 48.2301 85.4895 46.0706C86.9452 43.9317 89.199 43.3739 91.267 44.7358C93.3144 46.1032 93.4734 48.2679 92.366 50.564Z" fill="#EFFFF4"/>
<path d="M207.646 164.022C206.09 166.046 204.258 166.644 202.332 165.44C200.406 164.236 200.005 162.266 201.3 160.246C202.596 158.226 204.557 157.725 206.491 158.916C208.438 160.114 208.62 162.023 207.646 164.022Z" fill="#EFFFF4"/>
<path d="M111.041 204.136C109.752 206.034 108.255 206.673 106.588 205.878C104.681 204.973 104.118 203.265 105.261 201.296C106.396 199.341 108.147 198.928 109.948 200.057C111.563 201.072 111.581 202.665 111.041 204.136Z" fill="#EFFFF4"/>
<path d="M84.1843 188.266C85.8962 186.156 87.7423 185.729 89.5789 187.076C91.4528 188.447 91.5443 190.444 90.0907 192.333C88.8004 194.014 87.0032 194.363 85.2676 193.239C83.3079 191.979 83.2465 190.125 84.1843 188.266Z" fill="#EFFFF4"/>
<path d="M69.3764 179C68.053 180.68 66.4434 181.25 64.6868 180.077C63.1791 179.055 62.8595 177.423 63.8777 175.792C65.0426 173.926 66.7895 173.493 68.5295 174.638C70.0659 175.641 70.191 177.228 69.3764 179Z" fill="#EFFFF4"/>
<path d="M158.474 34.0316C157.244 35.534 155.717 36.137 154.128 35.1911C152.314 34.1093 151.976 32.2858 153.298 30.4978C154.425 28.9687 156.119 28.5929 157.66 29.6713C159.172 30.714 159.305 32.2876 158.474 34.0316Z" fill="#EFFFF4"/>
<path d="M179.517 46.9507C177.834 49.0957 175.979 49.3733 174.146 47.9922C172.492 46.7375 172.328 44.9113 173.596 43.1269C175.065 41.0499 176.991 40.8513 178.824 42.2323C180.507 43.4685 180.497 45.2432 179.517 46.9507Z" fill="#EFFFF4"/>
<path d="M200.053 59.4201C198.459 61.259 196.774 61.7302 195.128 60.4623C193.727 59.3791 193.44 57.6942 194.578 56.1184C195.855 54.3207 197.624 53.9902 199.286 55.232C200.741 56.3118 200.701 57.9424 200.053 59.4201Z" fill="#EFFFF4"/>
<path d="M74.8614 53.9335C73.6564 55.451 72.1217 56.067 70.5365 55.1418C68.7065 54.0861 68.3606 52.2757 69.6538 50.4521C70.7634 48.8949 72.449 48.5321 74.0021 49.5638C75.5389 50.6216 75.6722 52.1951 74.8614 53.9335Z" fill="#EFFFF4"/>
<path d="M220.133 142.857C218.706 144.869 217.125 145.421 215.307 144.319C213.726 143.36 213.316 141.816 214.21 140.11C215.209 138.18 216.85 137.503 218.758 138.462C220.67 139.441 220.824 141.118 220.133 142.857Z" fill="#EFFFF4"/>
<path d="M62.3819 74.8346C61.0112 76.755 59.2528 77.2893 57.3095 76.0031C55.5821 74.8658 55.266 73.1454 56.4101 71.2855C57.709 69.1777 59.5426 68.7429 61.494 70.0161C63.242 71.1479 63.4423 72.834 62.3819 74.8346Z" fill="#EFFFF4"/>
<path d="M49.3298 95.4447C48.0831 96.9189 46.5441 97.5144 44.979 96.5294C43.1898 95.4085 42.8726 93.5796 44.2199 91.8067C45.363 90.3058 47.0817 89.9451 48.594 91.042C50.0815 92.1238 50.2191 93.7179 49.3298 95.4447Z" fill="#EFFFF4"/>
<path d="M194.493 184.517C193.232 186.289 191.643 186.854 189.825 185.751C188.244 184.793 187.834 183.249 188.728 181.543C189.727 179.613 191.377 178.923 193.276 179.895C195.142 180.865 195.454 182.51 194.493 184.517Z" fill="#EFFFF4"/>
</svg>
